<?xml version="1.0" encoding="utf-8"?>
<svg version="1.1" xmlns:xlink="http://www.w3.org/1999/xlink" width="11px" height="13px" xmlns="http://www.w3.org/2000/svg">
  <g transform="matrix(1 0 0 1 -183 -3522 )">
    <path d="M 8.27864583333333 0.493303571428572  L 10.5130208333333 2.75669642857143  C 10.6467013888889 2.89211309523809  10.7612847222222 3.07589285714286  10.8567708333333 3.30803571428571  C 10.9522569444444 3.54017857142857  11 3.75297619047619  11 3.94642857142857  L 11 12.3035714285714  C 11 12.4970238095238  10.9331597222222 12.6614583333333  10.7994791666667 12.796875  C 10.6657986111111 12.9322916666667  10.5034722222222 13  10.3125 13  L 0.6875 13  C 0.496527777777778 13  0.334201388888889 12.9322916666667  0.200520833333333 12.796875  C 0.0668402777777778 12.6614583333333  0 12.4970238095238  0 12.3035714285714  L 0 0.696428571428572  C 0 0.50297619047619  0.0668402777777778 0.338541666666666  0.200520833333333 0.203125  C 0.334201388888889 0.0677083333333338  0.496527777777778 0  0.6875 0  L 7.10416666666667 0  C 7.29513888888889 0  7.50520833333333 0.0483630952380958  7.734375 0.145089285714286  C 7.96354166666667 0.241815476190476  8.14496527777778 0.357886904761904  8.27864583333333 0.493303571428572  Z M 7.626953125 1.14620535714286  C 7.56966145833333 1.08816964285714  7.47178819444445 1.03497023809524  7.33333333333333 0.986607142857142  L 7.33333333333333 3.71428571428571  L 10.0260416666667 3.71428571428571  C 9.97829861111111 3.57403273809524  9.92578125 3.47488839285714  9.86848958333333 3.41685267857143  L 7.626953125 1.14620535714286  Z M 1 12.0714285714286  L 10.0833333333333 12.0714285714286  L 10.0833333333333 4.64285714285714  L 7.10416666666667 4.64285714285714  C 6.91319444444444 4.64285714285714  6.75086805555556 4.57514880952381  6.6171875 4.43973214285714  C 6.48350694444444 4.30431547619048  6.41666666666667 4.13988095238095  6.41666666666667 3.94642857142857  L 6.41666666666667 0.928571428571428  L 1 0.928571428571428  L 1 12.0714285714286  Z M 5.35677083333333 6.04296875  C 5.61935763888889 6.83612351190476  5.96788194444444 7.4116443452381  6.40234375 7.76953125  C 6.55989583333333 7.89527529761905  6.76041666666667 8.03069196428571  7.00390625 8.17578125  C 7.28559027777778 8.14192708333333  7.56488715277778 8.125  7.841796875 8.125  C 8.54361979166667 8.125  8.96614583333333 8.24348958333333  9.109375 8.48046875  C 9.18576388888889 8.58686755952381  9.19053819444445 8.71261160714286  9.12369791666667 8.85770089285714  C 9.12369791666667 8.86253720238095  9.12131076388889 8.86737351190476  9.11653645833333 8.87220982142857  L 9.10221354166667 8.88671875  L 9.10221354166667 8.89397321428571  C 9.07356770833333 9.07775297619048  8.90407986111111 9.16964285714286  8.59375 9.16964285714286  C 8.36458333333333 9.16964285714286  8.09006076388889 9.12127976190476  7.77018229166667 9.02455357142857  C 7.45030381944445 8.92782738095238  7.13997395833333 8.79966517857143  6.83919270833333 8.64006696428571  C 5.78407118055556 8.75613839285714  4.84830729166667 8.95684523809524  4.03190104166667 9.2421875  C 3.30143229166667 10.5093005952381  2.72374131944444 11.1428571428571  2.298828125 11.1428571428571  C 2.22721354166667 11.1428571428571  2.16037326388889 11.1259300595238  2.09830729166667 11.0920758928571  L 1.92643229166667 11.0050223214286  C 1.92165798611111 11.0001860119048  1.90733506944444 10.9880952380952  1.88346354166667 10.96875  C 1.83572048611111 10.9203869047619  1.82139756944444 10.8333333333333  1.84049479166667 10.7075892857143  C 1.88346354166667 10.5141369047619  2.01714409722222 10.2928757440476  2.24153645833333 10.0438058035714  C 2.46592881944444 9.79473586309524  2.78103298611111 9.56138392857143  3.18684895833333 9.34375  C 3.25368923611111 9.30022321428571  3.30859375 9.31473214285714  3.3515625 9.38727678571429  C 3.36111111111111 9.39694940476191  3.36588541666667 9.40662202380952  3.36588541666667 9.41629464285714  C 3.61414930555556 9.00520833333333  3.86957465277778 8.52883184523809  4.13216145833333 7.98716517857143  C 4.45681423611111 7.32942708333333  4.705078125 6.69587053571429  4.876953125 6.08649553571429  C 4.76236979166667 5.6899181547619  4.68956163194444 5.30422247023809  4.65852864583333 4.92940848214286  C 4.62749565972222 4.55459449404762  4.64301215277778 4.24627976190476  4.705078125 4.00446428571429  C 4.75759548611111 3.8110119047619  4.85785590277778 3.71428571428571  5.005859375 3.71428571428571  L 5.15625 3.71428571428571  L 5.16341145833333 3.71428571428571  C 5.27322048611111 3.71428571428571  5.35677083333333 3.75055803571429  5.4140625 3.82310267857143  C 5.5 3.92466517857143  5.521484375 4.08909970238095  5.478515625 4.31640625  C 5.46896701388889 4.34542410714286  5.45941840277778 4.36476934523809  5.44986979166667 4.37444196428571  C 5.45464409722222 4.38895089285714  5.45703125 4.40829613095238  5.45703125 4.43247767857143  L 5.45703125 4.65011160714286  C 5.44748263888889 5.24497767857143  5.4140625 5.70926339285714  5.35677083333333 6.04296875  Z M 2.6318359375 10.2142857142857  C 2.45757378472222 10.4270833333333  2.33940972222222 10.6060267857143  2.27734375 10.7511160714286  C 2.52560763888889 10.6350446428571  2.85264756944445 10.2529761904762  3.25846354166667 9.60491071428571  C 3.01497395833333 9.79836309523809  2.80609809027778 10.0014880952381  2.6318359375 10.2142857142857  Z M 5.12760416666667 4.0625  L 5.12760416666667 4.07700892857143  C 5.05598958333333 4.28013392857143  5.05121527777778 4.59933035714286  5.11328125 5.03459821428571  C 5.11805555555556 5.00074404761905  5.134765625 4.89434523809524  5.16341145833333 4.71540178571429  C 5.16341145833333 4.70089285714286  5.18012152777778 4.59691220238095  5.21354166666667 4.40345982142857  C 5.21831597222222 4.38411458333333  5.22786458333333 4.36476934523809  5.2421875 4.34542410714286  C 5.23741319444444 4.34058779761905  5.23502604166667 4.33575148809524  5.23502604166667 4.33091517857143  C 5.23025173611111 4.32124255952381  5.22786458333333 4.31398809523809  5.22786458333333 4.30915178571429  C 5.22309027777778 4.20275297619048  5.19205729166667 4.1156994047619  5.134765625 4.04799107142857  C 5.134765625 4.05282738095238  5.13237847222222 4.05766369047619  5.12760416666667 4.0625  Z M 4.56184895833333 8.27008928571429  C 4.41861979166667 8.54092261904762  4.31119791666667 8.74162946428571  4.23958333333333 8.87220982142857  C 4.88411458333333 8.61104910714286  5.56206597222222 8.41517857142857  6.2734375 8.28459821428571  C 6.26388888888889 8.27976190476191  6.23285590277778 8.25678943452381  6.18033854166667 8.21568080357143  C 6.12782118055556 8.17457217261905  6.08962673611111 8.14192708333333  6.06575520833333 8.11774553571429  C 5.70290798611111 7.79371279761905  5.39973958333333 7.36811755952381  5.15625 6.84095982142857  C 5.02734375 7.25688244047619  4.82921006944444 7.73325892857143  4.56184895833333 8.27008928571429  Z M 8.88020833333333 8.77790178571429  C 8.88020833333333 8.77306547619048  8.87543402777778 8.76581101190476  8.86588541666667 8.75613839285714  C 8.75130208333333 8.64006696428571  8.41710069444445 8.58203125  7.86328125 8.58203125  C 8.22612847222222 8.71744791666666  8.52213541666667 8.78515625  8.75130208333333 8.78515625  C 8.81814236111111 8.78515625  8.86111111111111 8.78273809523809  8.88020833333333 8.77790178571429  Z " fill-rule="nonzero" fill="#ffb10c" stroke="none" transform="matrix(1 0 0 1 183 3522 )" />
  </g>
</svg>