<?xml version="1.0" encoding="utf-8"?>
<svg version="1.1" xmlns:xlink="http://www.w3.org/1999/xlink" width="15px" height="16px" xmlns="http://www.w3.org/2000/svg">
  <g transform="matrix(1 0 0 1 -43 -938 )">
    <path d="M 11.8269230769231 8.40178571428572  C 11.8269230769231 8.47916666666667  11.7998798076923 8.54761904761905  11.7457932692308 8.60714285714286  L 7.13040865384615 13.1785714285714  C 7.0703125 13.2321428571429  7.00120192307692 13.2589285714286  6.92307692307692 13.2589285714286  C 6.84495192307692 13.2589285714286  6.77584134615385 13.2321428571429  6.71574519230769 13.1785714285714  L 4.11959134615385 10.6071428571429  C 4.06550480769231 10.547619047619  4.03846153846154 10.4791666666667  4.03846153846154 10.4017857142857  C 4.03846153846154 10.3244047619048  4.06550480769231 10.2589285714286  4.11959134615385 10.2053571428571  L 4.53425480769231 9.79464285714286  C 4.58834134615385 9.74107142857143  4.65444711538462 9.71428571428572  4.73257211538462 9.71428571428572  C 4.81069711538462 9.71428571428572  4.87980769230769 9.74107142857143  4.93990384615385 9.79464285714286  L 6.92307692307692 11.7589285714286  L 10.9254807692308 7.79464285714286  C 10.9855769230769 7.74107142857143  11.0546875 7.71428571428571  11.1328125 7.71428571428571  C 11.2109375 7.71428571428571  11.2770432692308 7.74107142857143  11.3311298076923 7.79464285714286  L 11.7457932692308 8.20535714285714  C 11.7998798076923 8.25892857142857  11.8269230769231 8.32440476190476  11.8269230769231 8.40178571428572  Z M 1.15384615384615 6  L 1.15384615384615 14.8571428571429  L 13.8461538461538 14.8571428571429  L 13.8461538461538 6  L 1.15384615384615 6  Z M 4.53425480769231 4.20535714285714  C 4.58834134615385 4.15178571428571  4.61538461538462 4.08333333333333  4.61538461538462 4  L 4.61538461538462 1.42857142857143  C 4.61538461538462 1.34523809523809  4.58834134615385 1.27678571428571  4.53425480769231 1.22321428571429  C 4.48016826923077 1.16964285714286  4.41105769230769 1.14285714285714  4.32692307692308 1.14285714285714  L 3.75 1.14285714285714  C 3.66586538461539 1.14285714285714  3.59675480769231 1.16964285714286  3.54266826923077 1.22321428571429  C 3.48858173076923 1.27678571428571  3.46153846153846 1.34523809523809  3.46153846153846 1.42857142857143  L 3.46153846153846 4  C 3.46153846153846 4.08333333333333  3.48858173076923 4.15178571428571  3.54266826923077 4.20535714285714  C 3.59675480769231 4.25892857142857  3.66586538461539 4.28571428571429  3.75 4.28571428571429  L 4.32692307692308 4.28571428571429  C 4.41105769230769 4.28571428571429  4.48016826923077 4.25892857142857  4.53425480769231 4.20535714285714  Z M 11.4573317307692 4.20535714285714  C 11.5114182692308 4.15178571428571  11.5384615384615 4.08333333333333  11.5384615384615 4  L 11.5384615384615 1.42857142857143  C 11.5384615384615 1.34523809523809  11.5114182692308 1.27678571428571  11.4573317307692 1.22321428571429  C 11.4032451923077 1.16964285714286  11.3341346153846 1.14285714285714  11.25 1.14285714285714  L 10.6730769230769 1.14285714285714  C 10.5889423076923 1.14285714285714  10.5198317307692 1.16964285714286  10.4657451923077 1.22321428571429  C 10.4116586538462 1.27678571428571  10.3846153846154 1.34523809523809  10.3846153846154 1.42857142857143  L 10.3846153846154 4  C 10.3846153846154 4.08333333333333  10.4116586538462 4.15178571428571  10.4657451923077 4.20535714285714  C 10.5198317307692 4.25892857142857  10.5889423076923 4.28571428571429  10.6730769230769 4.28571428571429  L 11.25 4.28571428571429  C 11.3341346153846 4.28571428571429  11.4032451923077 4.25892857142857  11.4573317307692 4.20535714285714  Z M 14.6574519230769 2.625  C 14.8858173076923 2.85119047619048  15 3.11904761904762  15 3.42857142857143  L 15 14.8571428571429  C 15 15.1666666666667  14.8858173076923 15.4345238095238  14.6574519230769 15.6607142857143  C 14.4290865384615 15.8869047619048  14.1586538461538 16  13.8461538461538 16  L 1.15384615384615 16  C 0.841346153846154 16  0.570913461538462 15.8869047619048  0.342548076923077 15.6607142857143  C 0.114182692307692 15.4345238095238  0 15.1666666666667  0 14.8571428571429  L 0 3.42857142857143  C 0 3.11904761904762  0.114182692307692 2.85119047619048  0.342548076923077 2.625  C 0.570913461538462 2.39880952380952  0.841346153846154 2.28571428571429  1.15384615384615 2.28571428571429  L 2.30769230769231 2.28571428571429  L 2.30769230769231 1.42857142857143  C 2.30769230769231 1.03571428571429  2.44891826923077 0.699404761904761  2.73137019230769 0.419642857142858  C 3.01382211538462 0.139880952380953  3.35336538461538 0  3.75 0  L 4.32692307692308 0  C 4.72355769230769 0  5.06310096153846 0.139880952380953  5.34555288461538 0.419642857142858  C 5.62800480769231 0.699404761904761  5.76923076923077 1.03571428571429  5.76923076923077 1.42857142857143  L 5.76923076923077 2.28571428571429  L 9.23076923076923 2.28571428571429  L 9.23076923076923 1.42857142857143  C 9.23076923076923 1.03571428571429  9.37199519230769 0.699404761904761  9.65444711538462 0.419642857142858  C 9.93689903846154 0.139880952380953  10.2764423076923 0  10.6730769230769 0  L 11.25 0  C 11.6466346153846 0  11.9861778846154 0.139880952380953  12.2686298076923 0.419642857142858  C 12.5510817307692 0.699404761904761  12.6923076923077 1.03571428571429  12.6923076923077 1.42857142857143  L 12.6923076923077 2.28571428571429  L 13.8461538461538 2.28571428571429  C 14.1586538461538 2.28571428571429  14.4290865384615 2.39880952380952  14.6574519230769 2.625  Z " fill-rule="nonzero" fill="#ff5003" stroke="none" transform="matrix(1 0 0 1 43 938 )" />
  </g>
</svg>