<?xml version="1.0" encoding="UTF-8" standalone="no"?>
<!DOCTYPE svg PUBLIC "-//W3C//DTD SVG 1.1//EN" "http://www.w3.org/Graphics/SVG/1.1/DTD/svg11.dtd">
<svg version="1.1" xmlns="http://www.w3.org/2000/svg" xmlns:xlink="http://www.w3.org/1999/xlink" preserveAspectRatio="xMidYMid meet" viewBox="0 0 640 640" width="40" height="40"><defs><path d="M608.22 320C608.22 479.07 479.07 608.22 320 608.22C160.93 608.22 31.78 479.07 31.78 320C31.78 160.93 160.93 31.78 320 31.78C479.07 31.78 608.22 160.93 608.22 320Z" id="b62e9XGMf"></path><path d="M229.54 177.34C229.54 164.04 244.4 156.14 255.42 163.58C302.53 195.39 417.73 273.17 464.78 304.94C477.2 313.33 477.03 331.68 464.45 339.83C417.47 370.29 300.72 445.97 253.15 476.8C242.98 483.4 229.54 476.09 229.54 463.97C229.54 400.4 229.54 240.29 229.54 177.34Z" id="frpeiQOx1"></path></defs><g><g><use xlink:href="#b62e9XGMf" opacity="1" fill="#c21300" fill-opacity="1"></use></g><g><use xlink:href="#frpeiQOx1" opacity="1" fill="#ffffff" fill-opacity="1"></use></g></g></svg>